<svg width="41" height="35" viewBox="0 0 41 35" fill="none" xmlns="http://www.w3.org/2000/svg">
<path fill-rule="evenodd" clip-rule="evenodd" d="M12.5312 18.625C12.5312 14.224 16.099 10.6563 20.5 10.6563C24.901 10.6563 28.4687 14.224 28.4687 18.625C28.4687 23.026 24.901 26.5938 20.5 26.5938C16.099 26.5938 12.5312 23.026 12.5312 18.625ZM20.5 13.8438C17.8594 13.8438 15.7187 15.9844 15.7187 18.625C15.7187 21.2656 17.8594 23.4063 20.5 23.4063C23.1406 23.4063 25.2812 21.2656 25.2812 18.625C25.2812 15.9844 23.1406 13.8438 20.5 13.8438Z" fill="#5FD58B"/>
<path fill-rule="evenodd" clip-rule="evenodd" d="M17.5593 3.21875C15.3383 3.21875 13.5378 5.01922 13.5378 7.2402C13.5378 8.65537 12.4515 9.83353 11.041 9.94808L6.30305 10.3329C5.37279 10.4084 4.60773 11.0963 4.4341 12.0134C3.48052 17.0496 3.40942 22.2133 4.22396 27.2739L4.43062 28.5578C4.62579 29.7704 5.62376 30.6929 6.84788 30.7923L10.9753 31.1275C17.3147 31.6423 23.6853 31.6423 30.0247 31.1275L34.1521 30.7923C35.3762 30.6929 36.3742 29.7704 36.5694 28.5578L36.776 27.2739C37.5906 22.2133 37.5195 17.0496 36.5659 12.0134C36.3923 11.0963 35.6272 10.4084 34.6969 10.3329L29.959 9.94808C28.5485 9.83353 27.4622 8.65537 27.4622 7.2402C27.4622 5.01922 25.6617 3.21875 23.4407 3.21875H17.5593ZM10.3632 6.80512C10.5882 3.02631 13.724 0.03125 17.5593 0.03125H23.4407C27.276 0.03125 30.4118 3.02631 30.6368 6.80512L34.955 7.15582C37.3157 7.34754 39.2571 9.09324 39.6978 11.4204C40.72 16.8195 40.7963 22.3552 39.923 27.7804L39.7164 29.0643C39.2879 31.7261 37.0973 33.7511 34.4101 33.9693L30.2827 34.3045C23.7716 34.8333 17.2284 34.8333 10.7173 34.3045L6.58986 33.9693C3.90274 33.7511 1.71205 31.7261 1.28362 29.0644L1.07697 27.7804C0.203732 22.3552 0.279958 16.8195 1.30224 11.4204C1.74287 9.09324 3.68434 7.34754 6.04504 7.15582L10.3632 6.80512Z" fill="#5FD58B"/>
</svg>
