<svg width="41" height="41" viewBox="0 0 41 41" fill="none" xmlns="http://www.w3.org/2000/svg">
<path d="M13.6666 16.2293C12.4873 16.2293 11.5312 17.1854 11.5312 18.3647C11.5312 19.5441 12.4873 20.5002 13.6666 20.5002C14.846 20.5002 15.8021 19.5441 15.8021 18.3647C15.8021 17.1854 14.846 16.2293 13.6666 16.2293Z" fill="#5FD58B"/>
<path d="M20.5 16.2293C19.3206 16.2293 18.3646 17.1854 18.3646 18.3647C18.3646 19.5441 19.3206 20.5002 20.5 20.5002C21.6793 20.5002 22.6354 19.5441 22.6354 18.3647C22.6354 17.1854 21.6793 16.2293 20.5 16.2293Z" fill="#5FD58B"/>
<path d="M25.1979 18.3647C25.1979 17.1854 26.154 16.2293 27.3333 16.2293C28.5127 16.2293 29.4687 17.1854 29.4687 18.3647C29.4687 19.5441 28.5127 20.5002 27.3333 20.5002C26.154 20.5002 25.1979 19.5441 25.1979 18.3647Z" fill="#5FD58B"/>
<path fill-rule="evenodd" clip-rule="evenodd" d="M27.5054 7.84617C22.9028 7.45367 18.2762 7.43089 13.67 7.77806L13.3399 7.80294C8.94721 8.13401 5.55206 11.7947 5.55206 16.1998V30.7502C5.55206 31.2009 5.78895 31.6186 6.17586 31.8499C6.56277 32.0812 7.04276 32.0922 7.43984 31.8788L14.1208 28.2883C14.4315 28.1213 14.7788 28.0339 15.1316 28.0339H30.4663C32.4003 28.0339 34.0577 26.6512 34.4044 24.7485C35.107 20.8924 35.1625 16.9462 34.5686 13.0719L34.3936 11.9302C34.075 9.85156 32.3746 8.26142 30.2793 8.08273L27.5054 7.84617ZM13.8626 10.3333C18.3322 9.99644 22.8216 10.0185 27.2876 10.3994L30.0615 10.636C30.9778 10.7141 31.7214 11.4095 31.8607 12.3184L32.0357 13.4601C32.5865 17.0533 32.535 20.713 31.8834 24.2892C31.7587 24.9739 31.1623 25.4714 30.4663 25.4714H15.1316C14.3555 25.4714 13.5914 25.6637 12.9077 26.0311L8.11456 28.607V16.1998C8.11456 13.1352 10.4765 10.5885 13.5324 10.3582L13.8626 10.3333Z" fill="#5FD58B"/>
</svg>
