<svg width="28" height="28" viewBox="0 0 28 28" fill="none" xmlns="http://www.w3.org/2000/svg">
<path fill-rule="evenodd" clip-rule="evenodd" d="M27.8181 4.6149C28.1011 5.03928 28.0539 5.61598 27.6766 5.98958L14.1446 19.3899C14.0058 19.5272 13.8327 19.6255 13.6429 19.6746L8.00707 21.1324C7.82326 21.1799 7.63378 21.1789 7.45576 21.1341C7.2665 21.0864 7.09018 20.989 6.94737 20.8476C6.67021 20.5732 6.56077 20.1738 6.65983 19.7982L8.13193 14.2173C8.1753 14.0528 8.2567 13.8904 8.3693 13.763L21.9515 0.320226C22.0704 0.202492 22.2136 0.114376 22.3695 0.0606884C22.485 0.0208814 22.6075 0 22.7322 0C23.025 0 23.3059 0.115188 23.5129 0.320226L27.6766 4.44339C27.7305 4.49676 27.7777 4.55428 27.8181 4.6149ZM25.3345 5.21649L22.7322 2.63951L10.1927 15.0569L9.27262 18.545L12.795 17.6339L25.3345 5.21649Z" fill="#5FD58B"/>
<path d="M25.1484 21.7356C25.5509 18.328 25.679 14.8965 25.5326 11.4737C25.5256 11.3098 25.5879 11.1504 25.705 11.0344L27.1525 9.60093C27.3305 9.42469 27.6346 9.53658 27.6513 9.78527C27.9235 13.8519 27.8203 17.937 27.3416 21.9897C26.9934 24.938 24.6022 27.2486 21.6403 27.5764C16.5372 28.1412 11.2622 28.1412 6.15902 27.5764C3.19708 27.2486 0.805908 24.938 0.45768 21.9897C-0.15256 16.8229 -0.15256 11.6034 0.45768 6.43663C0.805908 3.48827 3.19708 1.17771 6.15902 0.849891C10.0303 0.421436 14.0004 0.318008 17.9194 0.539606C18.172 0.553888 18.2871 0.856543 18.1083 1.03369L16.6471 2.48059C16.5313 2.59531 16.3724 2.65692 16.2087 2.65145C12.9312 2.54199 9.63138 2.66584 6.40429 3.023C4.44624 3.23971 2.87774 4.76979 2.65087 6.69065C2.06057 11.6886 2.06057 16.7377 2.65087 21.7356C2.87774 23.6565 4.44624 25.1866 6.40429 25.4033C11.3444 25.95 16.4549 25.95 21.395 25.4033C23.3531 25.1866 24.9216 23.6565 25.1484 21.7356Z" fill="#5FD58B"/>
</svg>
