<svg width="29" height="29" viewBox="0 0 29 29" fill="none" xmlns="http://www.w3.org/2000/svg">
<g opacity="0.3">
<path d="M8.29472 8.3161C9.88188 6.72347 12.0752 5.7395 14.5 5.7395C19.3382 5.7395 23.2604 9.66167 23.2604 14.4999C23.2604 19.3382 19.3382 23.2603 14.5 23.2603C9.66174 23.2603 5.73956 19.3382 5.73956 14.4999C5.73956 13.9994 5.33382 13.5937 4.83331 13.5937C4.3328 13.5937 3.92706 13.9994 3.92706 14.4999C3.92706 20.3392 8.66072 25.0728 14.5 25.0728C20.3392 25.0728 25.0729 20.3392 25.0729 14.4999C25.0729 8.66066 20.3392 3.927 14.5 3.927C11.574 3.927 8.92422 5.11675 7.01089 7.03667C6.98014 7.06753 6.95207 7.10005 6.92669 7.13394L5.40712 5.61437C5.24136 5.44861 4.99466 5.3937 4.77424 5.4735C4.55381 5.55331 4.39945 5.75342 4.37823 5.98689L3.95102 10.6862C3.93478 10.8648 3.9987 11.0413 4.12549 11.1681C4.25228 11.2949 4.42883 11.3588 4.6074 11.3426L9.30672 10.9154C9.54018 10.8941 9.74029 10.7398 9.8201 10.5194C9.8999 10.2989 9.84499 10.0522 9.67923 9.88648L8.19525 8.4025C8.22995 8.37651 8.26321 8.34771 8.29472 8.3161Z" fill="black"/>
<path d="M15.4062 8.45825C15.4062 7.95774 15.0005 7.552 14.5 7.552C13.9995 7.552 13.5937 7.95774 13.5937 8.45825V14.4999C13.5937 14.8124 13.7547 15.1028 14.0197 15.2684L17.6447 17.534C18.0691 17.7993 18.6282 17.6703 18.8935 17.2459C19.1587 16.8214 19.0297 16.2623 18.6053 15.997L15.4062 13.9976V8.45825Z" fill="black"/>
</g>
</svg>
