<svg width="48" height="48" viewBox="0 0 48 48" fill="none" xmlns="http://www.w3.org/2000/svg">
<path fill-rule="evenodd" clip-rule="evenodd" d="M31.0607 14.9393C31.6465 15.5251 31.6465 16.4749 31.0607 17.0607L24.0607 24.0607C23.4749 24.6464 22.5252 24.6464 21.9394 24.0607L17.9394 20.0607C17.3536 19.4749 17.3536 18.5251 17.9394 17.9393C18.5252 17.3536 19.4749 17.3536 20.0607 17.9393L23 20.8787L28.9394 14.9393C29.5252 14.3536 30.4749 14.3536 31.0607 14.9393Z" fill="#5FD58B"/>
<path fill-rule="evenodd" clip-rule="evenodd" d="M7.04878 17.7137C7.75743 9.11648 14.9417 2.5 23.5681 2.5H24.432C33.0584 2.5 40.2427 9.11648 40.9513 17.7137C41.332 22.332 39.9054 26.9178 36.9721 30.5051L27.386 42.2287C25.636 44.3689 22.3641 44.3689 20.6141 42.2287L11.028 30.5052C8.09466 26.9178 6.6681 22.332 7.04878 17.7137ZM23.5681 5.5C16.503 5.5 10.619 10.919 10.0386 17.9602C9.72181 21.8038 10.9091 25.6205 13.3504 28.6061L22.9365 40.3297C23.4862 41.0019 24.5139 41.0019 25.0636 40.3297L34.6497 28.6061C37.091 25.6205 38.2783 21.8038 37.9615 17.9602C37.3811 10.919 31.4971 5.5 24.432 5.5H23.5681Z" fill="#5FD58B"/>
</svg>
