<svg width="621" height="498" viewBox="0 0 621 498" fill="none" xmlns="http://www.w3.org/2000/svg">
<g clip-path="url(#clip0_176_467)">
<path d="M31.462 0.1961C30.8199 0.25925 30.181 0.358962 29.5714 0.45535C27.231 0.844226 24.9884 1.4292 22.8435 2.27343C21.4354 2.82516 20.024 3.47329 18.6777 4.18789C17.3315 4.93573 16.0505 5.74672 14.8346 6.62086C14.2251 7.04297 13.6155 7.52823 13.0092 8.01682C12.0476 8.76133 11.1512 9.57232 10.32 10.483C9.90278 10.9051 9.48554 11.3572 9.07157 11.8125C7.02126 14.1159 5.25779 16.7117 3.88223 19.5003C3.56278 20.1185 3.27268 20.7334 2.98583 21.3483C1.05612 25.7589 0 30.6248 0 35.75V462.25C0 466.564 0.769274 470.719 2.1481 474.545C2.72506 476.2 3.42914 477.788 4.26361 479.281C4.80796 480.318 5.38492 481.292 6.02707 482.232C6.98866 483.661 8.04478 485.021 9.1661 486.287C9.55074 486.709 9.96797 487.131 10.3526 487.52C11.1219 488.365 11.9531 489.142 12.8527 489.824C13.4623 490.342 14.0686 490.831 14.7107 491.283C16.6013 492.646 18.619 493.845 20.7671 494.849H20.7997C23.6519 496.145 26.7258 497.089 29.93 497.575C31.6283 497.867 33.3917 497.997 35.1519 497.997H178.765V498H202.358C202.358 498 202.358 498 202.358 497.997H587.005C605.716 497.997 620.84 482.651 620.84 463.739V451.023V333.004V211.482V198.991L621 198.051C620.967 197.988 620.938 197.921 620.84 197.855V175.08V151.755V34.2576C620.84 28.7103 619.559 23.4887 617.219 18.8488C611.677 7.68777 600.236 0 587.005 0H352.986H318.157H35.1487C33.897 0 32.6811 0.0631507 31.462 0.1961Z" fill="#ACADBC" fill-opacity="0.2"/>
<path d="M384.08 0.00683594H417.703L378.102 20.5906L371.217 24.1637L285.427 68.768L271.789 75.8675L212.633 106.622L205.791 110.172L136.911 145.981L130.05 149.554L76.569 177.344L69.6195 180.96L3.51732 215.331C2.39926 215.919 1.1932 216.202 0.00994873 216.182V199.673L64.3715 166.216L71.233 162.643L157.17 117.972L164.032 114.399L265.051 61.8846L278.689 54.7851L384.08 0.00683594Z" fill="white"/>
<path d="M235.241 0.00683594H252.299L278.692 54.7851L285.427 68.768L336 173.665L339.358 180.678L376.918 258.609L380.276 265.579L384.298 273.921L413.276 334.038L420.933 349.938L450.534 411.337L454.987 420.574L462.171 435.514C462.256 435.687 462.344 435.883 462.428 436.079L477.012 466.312L480.389 473.325L490.65 494.603C491.188 495.694 491.426 496.867 491.426 498H475.206L451.157 448.078L444.23 433.68L405.359 353.026C405.251 352.83 405.166 352.634 405.078 352.438L374.317 288.599L367.54 274.573L350.763 239.747L347.406 232.777L297.947 130.124L294.57 123.154L271.789 75.8675L265.054 61.8846L235.241 0.00683594Z" fill="white"/>
<path d="M620.837 251.22V266.759C577.135 264.974 541.827 271.495 513.696 281.649C510.234 282.882 506.903 284.178 503.699 285.541C452.5 306.79 427.765 339.555 420.94 349.935C419.626 351.912 418.955 353.082 418.889 353.212C416.872 356.941 412.194 358.337 408.507 356.26C406.907 355.382 405.753 353.99 405.078 352.431C404.215 350.354 404.276 347.891 405.43 345.717C405.688 345.262 408.155 340.785 413.28 334.037C421.833 322.747 437.821 305.035 463.357 288.815C463.934 288.459 464.511 288.1 465.088 287.711C468.772 285.441 472.745 283.138 476.976 280.868C498.281 269.418 526.607 258.808 562.78 253.876C567.715 253.194 572.81 252.609 578.064 252.157C591.363 251.027 605.589 250.605 620.837 251.22Z" fill="white"/>
<path d="M110.945 0.00683594H118.925L126.132 18.2807L164.035 114.399L167.024 122.001C167.216 122.459 167.304 122.958 167.304 123.44C167.304 124.985 166.401 126.445 164.895 127.033C162.917 127.837 160.7 126.86 159.905 124.876L157.173 117.972L120.584 25.1608L117.722 17.9084L111.225 1.44268C111.033 0.964068 110.945 0.485452 110.945 0.00683594Z" fill="white"/>
<path d="M125.917 17.8219C126.001 17.9748 126.067 18.1277 126.132 18.2806C126.305 18.7392 126.389 19.1946 126.389 19.6732C126.389 21.0459 125.659 22.3754 124.368 23.0933L120.584 25.164L34.0862 72.5569L27.2866 76.2828L1.83861 90.2225C1.25839 90.5483 0.635799 90.7012 0.00994873 90.7012V82.3819L24.3171 69.0737L31.1134 65.3478L117.722 17.9083L120.734 16.2531C122.585 15.2294 124.906 15.9274 125.917 17.8219Z" fill="white"/>
<path d="M516.812 273.486C516.812 273.995 516.714 274.513 516.503 275.012L452.281 426.912C451.447 428.883 449.194 429.797 447.245 428.953C445.299 428.112 444.393 425.829 445.227 423.855L509.449 271.954C510.283 269.983 512.536 269.069 514.485 269.913C515.939 270.545 516.812 271.977 516.812 273.486Z" fill="white"/>
<path d="M486.08 346.368L486.273 346.531L533.596 383.318L587.361 425.071L593.961 430.196L620.811 451.056L620.843 451.089V460.887L614.34 455.825L588.87 436.036L581.532 430.359L528.475 389.128L483.17 353.897L481.439 352.534C479.74 351.238 479.421 348.805 480.702 347.116C482.009 345.398 484.411 345.072 486.08 346.368Z" fill="white"/>
<path d="M487.586 205.808C487.586 207.201 486.843 208.55 485.542 209.245L373.603 269.148C371.732 270.149 369.411 269.428 368.42 267.53C367.426 265.635 368.147 263.285 370.018 262.282L481.957 202.378C483.828 201.378 486.149 202.099 487.14 203.997C487.446 204.575 487.586 205.197 487.586 205.808Z" fill="white"/>
<path d="M475.405 102.929C475.405 104.302 474.685 105.631 473.41 106.339L332.789 184.317C330.931 185.348 328.601 184.656 327.584 182.775C326.563 180.894 327.248 178.534 329.106 177.504L469.727 99.5257C471.585 98.4953 473.915 99.1866 474.932 101.068C475.252 101.656 475.405 102.298 475.405 102.929Z" fill="white"/>
<path d="M421.66 132.733C421.66 134.278 420.741 135.741 419.235 136.346C417.266 137.137 415.037 136.159 414.257 134.165L368.248 16.5519C367.472 14.561 368.433 12.3009 370.402 11.5098C372.371 10.7188 374.601 11.696 375.38 13.6902L421.39 131.303C421.575 131.772 421.66 132.254 421.66 132.733Z" fill="white"/>
<path d="M509.084 0.00683594H516.806C516.806 0.202936 516.806 0.355827 516.763 0.551926L509.687 50.4942H509.664L508.565 58.2252L500.305 116.49L499.207 124.221L487.547 206.334L476.986 280.868H476.963L475.177 293.521C474.962 295.047 473.844 296.31 472.357 296.722C470.851 297.114 469.28 296.569 468.335 295.33L463.367 288.818L426.713 240.727L424.734 238.135C423.443 236.437 423.766 233.997 425.445 232.691C425.617 232.561 425.81 232.428 426.005 232.342C427.619 231.471 429.663 231.863 430.823 233.389L433.62 237.048L468.876 283.311L478.88 212.828L480.236 203.289L491.615 123.137L492.714 115.383L500.974 57.1184L502.072 49.4073L509.084 0.00683594Z" fill="white"/>
<path d="M9.06821 11.8091L31.1131 65.3376L34.0924 72.5734L71.2262 162.663L74.3033 170.125C74.3359 170.221 74.3685 170.321 74.4011 170.417C74.5608 170.806 75.2356 172.98 76.2917 176.42C76.3895 176.712 76.484 177.035 76.5818 177.36C78.7267 184.467 82.0287 196.113 84.6885 208.7C86.9312 219.179 88.7566 230.304 89.0793 239.939C89.1119 241.01 89.1412 242.047 89.1412 243.087C89.1412 245.294 89.0434 247.434 88.8544 249.412C88.7892 249.897 88.6946 250.419 88.6294 250.871C86.3803 262.607 71.4186 272.406 54.4032 279.897C52.0009 280.934 49.5659 281.941 47.0984 282.915C26.4975 291.025 5.15665 295.795 0.798514 296.768C0.544262 296.835 0.254154 296.865 -0.00335693 296.865V288.981C14.3521 285.833 32.6126 280.515 48.1839 274.057C48.4088 273.928 48.6337 273.831 48.8879 273.765C66.3824 266.336 80.3174 257.512 81.1844 248.624C82.2731 237.789 79.8056 222.251 76.6666 208.042C74.2968 197.402 71.5392 187.538 69.6192 180.953C68.3056 176.543 67.3766 173.621 67.1517 172.973L66.6073 171.61L64.3647 166.226L27.2994 76.2694L24.3201 69.0669L3.87887 19.4969C5.25444 16.7082 7.0179 14.1124 9.06821 11.8091Z" fill="white"/>
<path d="M359.773 232.763C359.773 234.173 359.013 235.532 357.69 236.22C272.652 280.509 215.084 281.144 181.689 238.164C173.074 227.076 162.604 221.124 150.572 220.472C119.867 218.81 88.0852 251.386 87.7657 251.715C86.2858 253.248 83.8574 253.281 82.3417 251.782C80.8292 250.283 80.7966 247.827 82.2732 246.291C83.6651 244.845 116.767 210.877 150.96 212.711C165.303 213.479 177.67 220.426 187.719 233.358C218.48 272.947 272.929 271.624 354.182 229.31C356.066 228.33 358.378 229.081 359.349 230.989C359.636 231.557 359.773 232.165 359.773 232.763Z" fill="white"/>
<path d="M278.132 263.651C278.132 265.164 277.255 266.599 275.795 267.228C273.842 268.065 271.59 267.144 270.762 265.17L202.658 102.74C201.827 100.762 202.743 98.4855 204.689 97.6479C206.641 96.8103 208.894 97.731 209.722 99.7053L277.825 262.136C278.037 262.631 278.132 263.146 278.132 263.651Z" fill="white"/>
<path d="M134.007 139.075L136.911 145.978L166.382 216.242L167.004 217.724C167.197 218.226 167.304 218.724 167.304 219.25C167.304 219.948 167.112 220.642 166.744 221.274L165.023 224.149L123.873 292.717L119.593 299.86L70.5909 381.497L69.8607 382.74C69.4076 383.525 68.6775 384.113 67.8169 384.395L63.5142 385.878L1.25839 407.392C0.850935 407.545 0.420663 407.612 0.00994873 407.612V399.641L62.2853 378.124L64.0292 377.512L68.7198 369.691L116.024 290.866L157.626 221.516L159.175 218.947L156.851 213.416L130.047 149.554L126.927 142.106C126.109 140.145 127.012 137.858 128.971 137.011C130.907 136.18 133.166 137.094 134.007 139.075Z" fill="white"/>
<path d="M263.177 227.197C260.709 228.004 258.339 229.008 256.129 230.281C245.141 236.41 237.513 247.897 236.682 261.271V261.311C236.65 262.082 236.617 262.853 236.617 263.661C236.617 264.279 236.617 264.894 236.682 265.512C236.715 266.746 236.842 268.019 237.034 269.215V269.252C239.212 284.208 249.946 296.31 264.044 300.358H264.076C267.313 301.322 270.772 301.784 274.298 301.784C276.861 301.784 279.393 301.552 281.796 301.05C298.971 297.503 311.977 282.085 311.977 263.661C311.977 261.428 311.784 259.151 311.4 257.03C311.175 255.757 310.921 254.524 310.565 253.331C310.213 252.021 309.796 250.748 309.284 249.555V249.515C303.71 235.486 290.124 225.501 274.295 225.501C270.419 225.501 266.704 226.08 263.177 227.197ZM302.041 252.058V252.098C302.553 253.331 302.97 254.604 303.29 255.874V255.914C303.609 257.147 303.867 258.343 304.026 259.613C304.219 260.962 304.316 262.272 304.316 263.661C304.316 280.429 290.861 294.037 274.295 294.037C259.813 294.037 247.798 283.707 244.913 269.87V269.83C244.659 268.597 244.496 267.4 244.401 266.131C244.336 265.32 244.303 264.512 244.303 263.664C244.303 263.086 244.303 262.548 244.336 262.006V261.966C244.913 251.52 250.712 242.462 259.138 237.45C261.315 236.141 263.688 235.1 266.185 234.406H266.218C268.78 233.671 271.505 233.289 274.292 233.289C286.793 233.289 297.523 241.073 302.041 252.058Z" fill="white"/>
<path d="M475.412 102.929C475.412 104.319 474.675 105.628 473.423 106.319L471.66 107.283C471.66 107.283 471.66 107.283 471.627 107.283L470.219 108.094V108.134C475.314 115.496 482.811 120.894 491.622 123.128L491.847 121.585L492.71 115.38C485.086 113.183 478.707 108.018 474.929 101.081C475.249 101.656 475.412 102.311 475.412 102.929ZM475.412 102.929C475.412 104.319 474.675 105.628 473.423 106.319L471.66 107.283C471.66 107.283 471.66 107.283 471.627 107.283L470.219 108.094V108.134C475.314 115.496 482.811 120.894 491.622 123.128L491.847 121.585L492.71 115.38C485.086 113.183 478.707 108.018 474.929 101.081C475.249 101.656 475.412 102.311 475.412 102.929ZM475.412 102.929C475.412 104.319 474.675 105.628 473.423 106.319L471.66 107.283L470.219 108.094V108.134C475.314 115.496 482.811 120.894 491.622 123.128L491.847 121.585L492.71 115.38C485.086 113.183 478.707 108.018 474.929 101.081C475.249 101.656 475.412 102.311 475.412 102.929ZM463.651 86.8158C463.651 91.9045 464.678 96.8369 466.536 101.271V101.311C467.047 102.507 467.592 103.7 468.201 104.781C468.586 105.475 468.97 106.17 469.388 106.825C469.642 107.25 469.932 107.672 470.222 108.098V108.138C475.317 115.5 482.814 120.897 491.625 123.131C492.075 123.247 492.521 123.363 492.971 123.44C493.675 123.593 494.412 123.749 495.149 123.825C496.495 124.058 497.841 124.171 499.217 124.211C499.696 124.287 500.146 124.287 500.657 124.287C521.033 124.287 537.664 107.443 537.664 86.8225C537.664 69.3231 525.747 54.599 509.693 50.4743H509.661C507.226 49.856 504.693 49.5104 502.066 49.394H500.657C480.249 49.3907 463.651 66.1556 463.651 86.8158ZM529.975 86.8158C529.975 103.198 516.806 116.497 500.657 116.497H500.305C497.678 116.42 495.116 116.075 492.714 115.38C485.089 113.183 478.71 108.018 474.932 101.081V101.041C472.657 96.8402 471.343 91.9842 471.343 86.8192C471.343 70.4365 484.512 57.1383 500.661 57.1383H500.98C503.607 57.1383 506.169 57.5239 508.572 58.2152C520.906 61.7251 529.975 73.2118 529.975 86.8158ZM475.412 102.929C475.412 104.319 474.675 105.628 473.423 106.319L471.66 107.283C471.66 107.283 471.66 107.283 471.627 107.283L470.219 108.094V108.134C475.314 115.496 482.811 120.894 491.622 123.128L491.847 121.585L492.71 115.38C485.086 113.183 478.707 108.018 474.929 101.081C475.249 101.656 475.412 102.311 475.412 102.929ZM475.412 102.929C475.412 104.319 474.675 105.628 473.423 106.319L471.66 107.283C471.66 107.283 471.66 107.283 471.627 107.283L470.219 108.094V108.134C475.314 115.496 482.811 120.894 491.622 123.128L491.847 121.585L492.71 115.38C485.086 113.183 478.707 108.018 474.929 101.081C475.249 101.656 475.412 102.311 475.412 102.929Z" fill="white"/>
<path d="M307.084 123.43C307.084 124.906 306.249 126.318 304.835 126.97L231.268 160.775C229.338 161.663 227.063 160.798 226.189 158.844C225.316 156.893 226.17 154.59 228.096 153.702L301.663 119.897C303.593 119.009 305.868 119.873 306.742 121.828C306.976 122.35 307.084 122.895 307.084 123.43Z" fill="white"/>
<path d="M617.219 18.8486C619.559 23.4885 620.84 28.7101 620.84 34.2574V35.9758C600.718 54.7249 586.813 81.5872 579.221 116.493C578.677 119.022 578.165 121.618 577.65 124.277C576.529 130.443 575.567 136.798 574.798 143.418C574.061 149.777 573.517 156.102 573.197 162.301V162.334C572.94 166.714 572.747 171.029 572.686 175.276C572.62 177.905 572.588 180.531 572.588 183.094C572.588 184.716 572.588 186.304 572.62 187.863C572.907 216.833 576.271 240.97 578.067 252.161C578.771 256.378 579.221 258.778 579.254 258.875C580.118 263.059 577.461 267.181 573.295 268.055C569.162 268.932 565.094 266.237 564.227 262.022C564.129 261.537 563.555 258.682 562.786 253.879C560.961 242.751 558.011 221.243 557.372 194.966C557.179 188.541 557.147 181.794 557.307 174.884C557.561 164.178 558.236 152.987 559.549 141.634C566.02 85.9679 585.659 44.5078 617.219 18.8486Z" fill="white"/>
<path d="M612.251 331.448L620.837 299.235V329.082L619.875 332.748L593.955 430.2L593.283 432.699C592.931 433.965 592.002 434.969 590.816 435.358L588.86 436.039L540.64 452.618L480.373 473.348L472.618 476.007C470.6 476.688 468.42 475.618 467.748 473.574C467.044 471.563 468.133 469.356 470.15 468.642L477.006 466.272L536.377 445.868L581.519 430.362L586.389 428.674L587.351 425.074L612.251 331.448Z" fill="white"/>
<path d="M597.13 179.624C601.615 181.442 606.198 183.971 610.651 187.475C614.432 190.459 617.861 193.929 620.84 197.855C620.938 197.921 620.967 197.984 621 198.051L620.84 198.991V212.163C620.553 211.645 620.296 211.126 620.009 210.604C619.882 210.378 619.752 210.149 619.592 209.923C619.592 209.857 619.559 209.793 619.527 209.76C615.876 203.239 611.355 197.888 606.006 193.67C598.476 187.701 590.307 184.975 583.322 183.809C579.221 183.161 575.505 182.998 572.588 183.094C568.422 183.19 565.795 183.709 565.7 183.709C563.65 184.164 561.6 182.802 561.182 180.724C560.733 178.617 562.046 176.573 564.129 176.118C564.481 176.021 567.718 175.373 572.686 175.273C578.866 175.114 587.774 175.828 597.13 179.624Z" fill="white"/>
<path d="M570.599 116.493H620.837V124.277H570.599C568.484 124.277 566.786 122.526 566.786 120.352C566.789 118.248 568.487 116.493 570.599 116.493Z" fill="white"/>
<path d="M53.8981 276.816L54.3936 279.888L68.7197 369.691L70.5907 381.474V381.497L78.378 430.286L79.734 438.781L86.2304 479.467L87.4561 487.198L89.0924 497.392C89.1152 497.611 89.1348 497.784 89.1348 498H81.3899L79.3037 484.822L63.514 385.871L62.2884 378.117L47.0985 282.915L46.326 278.059C46.0032 275.946 47.4245 273.941 49.5106 273.616C51.5968 273.267 53.5526 274.706 53.8981 276.816Z" fill="white"/>
<path d="M463.012 439.047C463.012 442.344 460.923 445.402 457.653 446.449C456.783 446.728 370.194 473.408 336.835 390.661C303.485 307.92 373.284 270.88 373.991 270.515C377.769 268.57 382.385 270.099 384.305 273.925C386.221 277.754 384.715 282.427 380.938 284.368C378.584 285.598 323.105 315.498 351.04 384.791C362.807 413.983 383.418 430.738 412.289 434.587C434.311 437.522 452.839 431.699 453.021 431.639C457.06 430.342 461.372 432.609 462.65 436.697C462.895 437.479 463.012 438.27 463.012 439.047Z" fill="white"/>
<path d="M345.166 380.716C345.166 381.839 344.687 382.953 343.761 383.721C342.122 385.08 339.706 384.837 338.363 383.179L273.572 303.15L77.7391 440.167C75.9951 441.387 73.6058 440.945 72.403 439.18C71.2002 437.415 71.6337 434.996 73.3777 433.779L272.118 294.728C273.761 293.578 276 293.897 277.265 295.459L344.299 378.256C344.883 378.978 345.166 379.848 345.166 380.716Z" fill="white"/>
<path d="M178.765 367.444C178.765 368.621 178.24 369.781 177.243 370.545C175.554 371.838 173.149 371.502 171.868 369.79L116.19 295.303C114.912 293.591 115.248 291.155 116.933 289.862C118.621 288.569 121.027 288.904 122.308 290.616L177.989 365.104C178.511 365.805 178.765 366.63 178.765 367.444Z" fill="white"/>
<path d="M125.431 440.347C125.431 449.078 123.508 456.896 119.665 463.756C108.347 483.951 84.6854 487.896 83.6814 488.055C81.5887 488.384 79.6264 486.935 79.3004 484.815C78.9745 482.694 80.4022 480.713 82.4949 480.381C82.7328 480.341 103.585 476.781 113.021 459.867C119.876 447.586 119.277 431.133 111.238 410.975C110.44 408.984 111.395 406.721 113.357 405.92C115.323 405.115 117.559 406.079 118.351 408.067C123.071 419.889 125.431 430.675 125.431 440.347Z" fill="white"/>
<path d="M142.87 391.601L143.473 394.17L151.99 431.177L153.754 438.778L158.229 458.205L159.973 465.83L167.2 497.129C167.285 497.435 167.307 497.694 167.307 498H159.52L151.713 464.108C151.69 464.022 151.69 463.955 151.671 463.889L136.699 398.917L135.409 393.363C135.021 391.731 135.731 390.096 137.065 389.225C137.43 388.985 137.84 388.809 138.271 388.703C140.331 388.224 142.397 389.511 142.87 391.601Z" fill="white"/>
<path d="M248.701 362.907C248.701 370.668 238.83 376.91 229.234 382.979C221.078 388.137 210.944 394.566 212.153 399.225C216.622 416.279 167.63 434.124 152.509 439.183C150.497 439.858 148.327 438.751 147.662 436.714C147.006 434.683 148.089 432.479 150.1 431.808C180.786 421.534 206.28 407.232 204.735 401.216C202.065 391.003 213.806 383.577 225.166 376.391C232.432 371.798 242.393 365.5 240.763 361.92C234.889 348.901 224.98 332.385 224.879 332.219C223.784 330.388 224.354 327.998 226.16 326.881C227.973 325.765 230.329 326.346 231.431 328.178C231.848 328.869 241.673 345.245 247.742 358.689C248.397 360.152 248.701 361.551 248.701 362.907Z" fill="white"/>
<path d="M400.254 438.386L401.952 448.36L410.278 497.345C410.32 497.564 410.343 497.78 410.343 498H402.621L393.8 446.206L392.682 439.695C392.337 437.605 393.735 435.577 395.821 435.208C397.911 434.859 399.889 436.275 400.254 438.386Z" fill="white"/>
<path d="M378.033 426.321C378.506 427.019 378.744 427.78 378.744 428.564C378.744 429.784 378.186 430.98 377.111 431.745L371.625 435.687L316.253 475.306C316.08 475.459 315.908 475.588 315.715 475.698L284.566 498H274.067C274.067 496.78 274.647 495.604 275.703 494.842L305.109 473.78L312.961 468.16L365.105 430.828L372.7 425.403C374.421 424.163 376.808 424.579 378.033 426.321Z" fill="white"/>
<path d="M351.542 396.091C351.542 397.703 350.548 399.209 348.957 399.764L156.714 466.963C154.712 467.664 152.528 466.587 151.837 464.56C151.146 462.529 152.209 460.322 154.21 459.621L346.454 392.422C348.455 391.72 350.639 392.797 351.33 394.825C351.477 395.244 351.542 395.672 351.542 396.091Z" fill="white"/>
<path d="M317.609 472.328C317.609 472.534 317.593 472.74 317.56 472.949C317.228 475.063 315.269 476.502 313.179 476.17C312.436 476.05 294.87 473.082 285 457.829C278.132 447.217 276.779 433.53 280.984 417.144C281.515 415.066 283.611 413.823 285.662 414.362C287.712 414.9 288.944 417.024 288.409 419.098C284.788 433.234 285.782 444.814 291.376 453.509C299.336 465.883 314.239 468.475 314.389 468.502C316.266 468.808 317.609 470.46 317.609 472.328Z" fill="white"/>
<path d="M224.182 439.563L225.107 443.069L239.326 496.996C239.411 497.345 239.453 497.651 239.453 497.997H231.666L217.835 445.592L216.759 441.563C216.287 439.689 217.212 437.794 218.868 437.033C219.061 436.947 219.276 436.88 219.491 436.814C221.538 436.252 223.647 437.495 224.182 439.563Z" fill="white"/>
<path d="M162.662 220.745C161.678 220.745 160.743 220.157 160.332 219.173L133.753 155.554C129.906 146.347 133.733 135.552 142.459 130.978L353.83 20.2085C358.534 17.7389 364.075 17.4099 369.03 19.3077C373.985 21.2022 377.948 25.1608 379.904 30.173L400.205 82.1593C400.724 83.4855 400.088 84.9845 398.791 85.5129C397.487 86.0414 396.02 85.3933 395.502 84.0705L375.201 32.0841C373.77 28.4214 370.875 25.5264 367.254 24.1437C363.632 22.7577 359.584 22.9971 356.145 24.8018L144.774 135.572C138.394 138.915 135.601 146.802 138.411 153.533L164.99 217.152C165.537 218.462 164.938 219.977 163.653 220.539C163.327 220.679 162.992 220.745 162.662 220.745Z" fill="#60D394"/>
<path d="M187.67 173.678C187.67 190.343 158.096 225.95 158.096 225.95C158.096 225.95 128.537 190.343 128.537 173.678C128.537 157.046 141.768 143.521 158.096 143.521C174.439 143.521 187.67 157.049 187.67 173.678Z" fill="#FF5C5C"/>
<path d="M167.851 182.616C173.236 177.125 173.236 168.223 167.851 162.733C162.466 157.242 153.736 157.242 148.352 162.733C142.967 168.223 142.967 177.125 148.352 182.616C153.736 188.106 162.466 188.106 167.851 182.616Z" fill="white"/>
<path opacity="0.5" d="M401.147 114.479C416.104 114.479 428.228 102.116 428.228 86.8654C428.228 71.6149 416.104 59.252 401.147 59.252C386.191 59.252 374.066 71.6149 374.066 86.8654C374.066 102.116 386.191 114.479 401.147 114.479Z" fill="#FF9B85"/>
<path d="M412.024 89.5046C413.441 83.3878 409.726 77.2583 403.727 75.814C397.728 74.3696 391.717 78.1574 390.3 84.2742C388.884 90.391 392.599 96.5205 398.597 97.9648C404.596 99.4092 410.608 95.6214 412.024 89.5046Z" fill="#FF9B85"/>
</g>
<defs>
<clipPath id="clip0_176_467">
<rect width="621" height="498" fill="white"/>
</clipPath>
</defs>
</svg>
