<svg width="29" height="29" viewBox="0 0 29 29" fill="none" xmlns="http://www.w3.org/2000/svg">
<path fill-rule="evenodd" clip-rule="evenodd" d="M17.382 18.6635C14.1796 21.2283 9.49192 21.0265 6.52331 18.0579C3.3381 14.8727 3.3381 9.7084 6.52331 6.52319C9.70852 3.33797 14.8728 3.33797 18.058 6.52319C21.0266 9.4918 21.2285 14.1794 18.6636 17.3818L24.8933 23.6116C25.2472 23.9655 25.2472 24.5393 24.8933 24.8932C24.5394 25.2471 23.9656 25.2471 23.6117 24.8932L17.382 18.6635ZM7.80494 16.7762C5.32755 14.2988 5.32755 10.2822 7.80494 7.80482C10.2823 5.32743 14.299 5.32743 16.7764 7.80482C19.2519 10.2804 19.2537 14.2929 16.7818 16.7708C16.78 16.7726 16.7782 16.7744 16.7763 16.7762C16.7745 16.778 16.7727 16.7798 16.7709 16.7817C14.2931 19.2536 10.2805 19.2518 7.80494 16.7762Z" fill="black"/>
</svg>
