<svg width="41" height="41" viewBox="0 0 41 41" fill="none" xmlns="http://www.w3.org/2000/svg">
<path fill-rule="evenodd" clip-rule="evenodd" d="M24.3437 9.39583C24.3437 6.3295 26.8295 3.84375 29.8958 3.84375C32.9621 3.84375 35.4479 6.3295 35.4479 9.39583C35.4479 12.4622 32.9621 14.9479 29.8958 14.9479C28.2565 14.9479 26.783 14.2374 25.7667 13.1075L21.1247 15.6396L15.9304 18.6077C16.3923 19.4176 16.6562 20.3551 16.6562 21.3542C16.6562 21.8604 16.5885 22.3509 16.4615 22.8169L25.7667 27.8925C26.783 26.7626 28.2565 26.0521 29.8958 26.0521C32.9621 26.0521 35.4479 28.5378 35.4479 31.6042C35.4479 34.6705 32.9621 37.1562 29.8958 37.1562C26.8295 37.1562 24.3437 34.6705 24.3437 31.6042C24.3437 31.0979 24.4115 30.6075 24.5384 30.1414L15.2333 25.0659C14.2169 26.1957 12.7435 26.9062 11.1041 26.9062C8.03782 26.9062 5.55206 24.4205 5.55206 21.3542C5.55206 18.2878 8.03782 15.8021 11.1041 15.8021C12.2157 15.8021 13.251 16.1287 14.1192 16.6913L19.8753 13.4021L24.5384 10.8586C24.4115 10.3925 24.3437 9.9021 24.3437 9.39583ZM29.8958 6.40625C28.2447 6.40625 26.9062 7.74473 26.9062 9.39583C26.9062 11.0469 28.2447 12.3854 29.8958 12.3854C31.5469 12.3854 32.8854 11.0469 32.8854 9.39583C32.8854 7.74473 31.5469 6.40625 29.8958 6.40625ZM11.1041 18.3646C9.45305 18.3646 8.11456 19.7031 8.11456 21.3542C8.11456 23.0053 9.45305 24.3438 11.1041 24.3438C12.7552 24.3438 14.0937 23.0053 14.0937 21.3542C14.0937 19.7031 12.7552 18.3646 11.1041 18.3646ZM26.9062 31.6042C26.9062 29.9531 28.2447 28.6146 29.8958 28.6146C31.5469 28.6146 32.8854 29.9531 32.8854 31.6042C32.8854 33.2553 31.5469 34.5938 29.8958 34.5938C28.2447 34.5938 26.9062 33.2553 26.9062 31.6042Z" fill="#5FD58B"/>
</svg>
