<svg width="40" height="40" viewBox="0 0 40 40" fill="none" xmlns="http://www.w3.org/2000/svg">
<path d="M33.9129 8.75004H10.8919L8.92495 5.22437C8.70417 4.82863 8.2865 4.58337 7.83334 4.58337H5.33334C4.64299 4.58337 4.08334 5.14302 4.08334 5.83337C4.08334 6.52373 4.64299 7.08337 5.33334 7.08337H7.09934L9.0405 10.5628L13.5173 20.4682L13.5219 20.4783L13.9162 21.3507L9.42145 26.1451C9.09827 26.4898 8.9971 26.9874 9.15999 27.4309C9.32287 27.8745 9.72196 28.1883 10.1914 28.242L14.2883 28.7102C19.4128 29.2958 24.5873 29.2958 29.7117 28.7102L33.8086 28.242C34.4945 28.1636 34.987 27.544 34.9086 26.8581C34.8302 26.1722 34.2107 25.6797 33.5248 25.7581L29.4279 26.2263C24.4921 26.7904 19.508 26.7904 14.5722 26.2263L12.9463 26.0405L16.2453 22.5216C16.2772 22.4876 16.3068 22.4522 16.3342 22.4158L17.5889 22.579C19.3471 22.8078 21.1244 22.8527 22.8919 22.7129C27.0143 22.3868 30.835 20.4252 33.5025 17.2652L34.4659 16.1238C34.4983 16.0855 34.5283 16.0452 34.5558 16.0033L36.3514 13.2669C37.6242 11.3272 36.2328 8.75004 33.9129 8.75004Z" fill="#5FD58B"/>
<path d="M12.8333 30.8334C11.4526 30.8334 10.3333 31.9527 10.3333 33.3334C10.3333 34.7141 11.4526 35.8334 12.8333 35.8334C14.2141 35.8334 15.3333 34.7141 15.3333 33.3334C15.3333 31.9527 14.2141 30.8334 12.8333 30.8334Z" fill="#5FD58B"/>
<path d="M28.6667 33.3334C28.6667 31.9527 29.786 30.8334 31.1667 30.8334C32.5474 30.8334 33.6667 31.9527 33.6667 33.3334C33.6667 34.7141 32.5474 35.8334 31.1667 35.8334C29.786 35.8334 28.6667 34.7141 28.6667 33.3334Z" fill="#5FD58B"/>
</svg>
