<svg width="9" height="9" viewBox="0 0 9 9" fill="none" xmlns="http://www.w3.org/2000/svg">
<path d="M8.99306 3.81053C9.03803 3.58514 8.85817 3.31468 8.63334 3.31468L6.07032 2.95406L4.90122 0.610057C4.85625 0.519903 4.81129 0.474826 4.72136 0.429749C4.49653 0.294518 4.22674 0.384672 4.09184 0.610057L2.96771 2.95406L0.404688 3.31468C0.269792 3.31468 0.179861 3.35976 0.134896 3.44991C-0.0449653 3.63022 -0.0449653 3.90068 0.134896 4.08099L1.97847 5.88407L1.52882 8.45347C1.52882 8.54362 1.52882 8.63377 1.57379 8.72393C1.70868 8.94931 1.97847 9.03947 2.2033 8.90424L4.49653 7.68716L6.78976 8.90424C6.83473 8.94931 6.92466 8.94931 7.01459 8.94931C7.05956 8.94931 7.05955 8.94931 7.10452 8.94931C7.32935 8.90424 7.50921 8.67885 7.46424 8.40839L7.01459 5.839L8.85817 4.03591C8.9481 3.99084 8.99306 3.90068 8.99306 3.81053Z" fill="#5FD58B"/>
</svg>
