<svg width="19" height="24" viewBox="0 0 19 24" fill="none" xmlns="http://www.w3.org/2000/svg">
<path d="M7.25 0.53125C6.78401 0.53125 6.40625 0.90901 6.40625 1.375V2.21875H1.625C1.15901 2.21875 0.78125 2.59651 0.78125 3.0625C0.78125 3.52849 1.15901 3.90625 1.625 3.90625H17.375C17.841 3.90625 18.2188 3.52849 18.2188 3.0625C18.2188 2.59651 17.841 2.21875 17.375 2.21875H12.5938V1.375C12.5938 0.90901 12.216 0.53125 11.75 0.53125H7.25Z" fill="#7CE780"/>
<path d="M7.25 9.98124C7.71599 9.98124 8.09375 10.359 8.09375 10.825L8.09375 18.7C8.09375 19.166 7.71599 19.5437 7.25 19.5437C6.78401 19.5437 6.40625 19.166 6.40625 18.7L6.40625 10.825C6.40625 10.359 6.78401 9.98124 7.25 9.98124Z" fill="#7CE780"/>
<path d="M12.5938 10.825C12.5938 10.359 12.216 9.98124 11.75 9.98124C11.284 9.98124 10.9062 10.359 10.9062 10.825V18.7C10.9062 19.166 11.284 19.5437 11.75 19.5437C12.216 19.5437 12.5938 19.166 12.5938 18.7V10.825Z" fill="#7CE780"/>
<path fill-rule="evenodd" clip-rule="evenodd" d="M2.74035 6.90682C2.78783 6.47952 3.14901 6.15625 3.57894 6.15625H15.421C15.851 6.15625 16.2122 6.47952 16.2596 6.90682L16.4848 8.93334C16.893 12.6068 16.893 16.3142 16.4848 19.9877L16.4626 20.1872C16.3006 21.6454 15.1705 22.8081 13.7175 23.0115C10.9195 23.4032 8.08051 23.4032 5.28246 23.0115C3.82948 22.8081 2.69937 21.6454 2.53735 20.1872L2.51518 19.9877C2.10702 16.3142 2.10702 12.6068 2.51518 8.93334L2.74035 6.90682ZM4.33413 7.84375L4.19236 9.11969C3.79796 12.6693 3.79796 16.2517 4.19236 19.8014L4.21453 20.0009C4.29137 20.6924 4.82734 21.2438 5.51643 21.3403C8.15925 21.7103 10.8407 21.7103 13.4836 21.3403C14.1727 21.2438 14.7086 20.6924 14.7855 20.0009L14.8076 19.8014C15.202 16.2517 15.202 12.6693 14.8076 9.11969L14.6659 7.84375H4.33413Z" fill="#7CE780"/>
</svg>
