<svg width="30" height="30" viewBox="0 0 30 30" fill="none" xmlns="http://www.w3.org/2000/svg">
<g clip-path="url(#clip0_77_34)">
<path d="M13.5 9C18.2375 9 22.4625 11.6625 24.525 15.875C22.4625 20.0875 18.2375 22.75 13.5 22.75C8.76247 22.75 4.53747 20.0875 2.47497 15.875C4.53747 11.6625 8.76247 9 13.5 9ZM13.5 6.5C7.24997 6.5 1.91247 10.3875 -0.250031 15.875C1.91247 21.3625 7.24997 25.25 13.5 25.25C19.75 25.25 25.0875 21.3625 27.25 15.875C25.0875 10.3875 19.75 6.5 13.5 6.5ZM13.5 12.75C15.225 12.75 16.625 14.15 16.625 15.875C16.625 17.6 15.225 19 13.5 19C11.775 19 10.375 17.6 10.375 15.875C10.375 14.15 11.775 12.75 13.5 12.75ZM13.5 10.25C10.4 10.25 7.87497 12.775 7.87497 15.875C7.87497 18.975 10.4 21.5 13.5 21.5C16.6 21.5 19.125 18.975 19.125 15.875C19.125 12.775 16.6 10.25 13.5 10.25Z" fill="#3E4E57"/>
</g>
<defs>
<clipPath id="clip0_77_34">
<rect width="30" height="30" fill="white"/>
</clipPath>
</defs>
</svg>
